{"title":"Oxford.Street.Revealed.S01E01.HDTV.XviD-AFG","uid":11888249,"size":254965937,"categoryP":"other","categoryS":"other","magnet":"?xt=urn:btih:f694697f4d0c68b5118d77497331cb80c0f08dc5&amp;dn=Oxford.Street.Revealed.S01E01.HDTV.XviD-AFG&amp;tr=udp%3A%2F%2Ftracker.openbittorrent.com%3A80&amp;tr=udp%3A%2F%2Fopen.demonii.com%3A1337&amp;tr=udp%3A%2F%2Ftracker.coppersurfer.tk%3A6969&amp;tr=udp%3A%2F%2Fexodus.desync.com%3A6969","seeders":2,"leechers":0,"uploader":"toots2boots","files":2,"time":1430900861,"description":"Oxford Street Revealed S01E01. London's iconic Fashion and Retail Center.\nOxford Street Revealed: It is the biggest day of the year as the Christmas lights are switched on. Cheryl Fernandez-Versini has been booked to push the button and a specialist team have got to make sure everything is in place for the big moment\n\nGeneral\nComplete name                            : G:Torrent uploadOxford StOxford.Street.Revealed.S01E01.HDTV.XviD-AFGOxford.Street.Revealed.S01E01.HDTV.XviD-AFG.avi\nFormat                                   : AVI\nFormat/Info                              : Audio Video Interleave\nFile size                                : 243 MiB\nDuration                                 : 28mn 56s\nOverall bit rate mode                    : Variable\nOverall bit rate                         : 1 174 Kbps\n\nVideo\nID                                       : 0\nFormat                                   : MPEG-4 Visual\nFormat profile                           : Advanced Simple@L5\nFormat settings, BVOP                    : 2\nFormat settings, QPel                    : No\nFormat settings, GMC                     : No warppoints\nFormat settings, Matrix                  : Default (H.263)\nCodec ID                                 : XVID\nCodec ID/Hint                            : XviD\nDuration                                 : 28mn 56s\nBit rate                                 : 1 034 Kbps\nWidth                                    : 640 pixels\nHeight                                   : 360 pixels\nDisplay aspect ratio                     : 16:9\nFrame rate                               : 25.000 fps\nColor space                              : YUV\nChroma subsampling                       : 4:2:0\nBit depth                                : 8 bits\nScan type                                : Progressive\nCompression mode                         : Lossy\nBits/(Pixel*Frame)                       : 0.179\nStream size                              : 214 MiB (88%)\nWriting library                          : XviD 64\n\nAudio\nID                                       : 1\nFormat                                   : MPEG Audio\nFormat version                           : Version 1\nFormat profile                           : Layer 3\nMode                                     : Joint stereo\nMode extension                           : MS Stereo\nCodec ID                                 : 55\nCodec ID/Hint                            : MP3\nDuration                                 : 28mn 56s\nBit rate mode                            : Variable\nBit rate                                 : 128 Kbps\nChannel(s)                               : 2 channels\nSampling rate                            : 48.0 KHz\nCompression mode                         : Lossy\nStream size                              : 26.5 MiB (11%)\nAlignment                                : Aligned on interleaves\nInterleave, duration                     : 24 ms (0.60 video frame)\nInterleave, preload duration             : 178 ms\nTitle                                    : Oxford.Street.Revealed.S01E01.HDTV.XviD-AFG_360p.audio","torrent":{"xt":"urn:btih:f694697f4d0c68b5118d77497331cb80c0f08dc5","amp;dn":"Oxford.Street.Revealed.S01E01.HDTV.XviD-AFG","amp;tr":["udp%3A%2F%2Ftracker.openbittorrent.com%3A80","udp%3A%2F%2Fopen.demonii.com%3A1337","udp%3A%2F%2Ftracker.coppersurfer.tk%3A6969","udp%3A%2F%2Fexodus.desync.com%3A6969"],"infoHash":"f694697f4d0c68b5118d77497331cb80c0f08dc5","infoHashBuffer":{"type":"Buffer","data":[246,148,105,127,77,12,104,181,17,141,119,73,115,49,203,128,192,240,141,197]},"announce":[],"urlList":[]}}